<svg id="Layer_1" data-name="Layer 1" xmlns="http://www.w3.org/2000/svg" viewBox="0 0 290 370"><defs><style>.cls-1{fill:#01945e;}.cls-2{fill:#515050;}.cls-3{fill:#525151;}.cls-4{fill:#02945f;}</style></defs><path class="cls-2" d="M 149 333 a 15.8 15.8 0 0 1 -1.7 -0.5 a 5 5 0 0 1 -3.2 -4.8 q 0 -17 0 -33.9 a 5.2 5.2 0 0 1 10.5 0 q 0 16.9 0 33.8 a 5.1 5.1 0 0 1 -4.3 5.1 a 4 4 0 0 0 -0.5 0.2 Z"/><path class="cls-3" d="M 29.3 149.2 a 28.7 28.7 0 0 1 2 -2.6 c 3.4 -3.5 6.8 -6.8 10.2 -10.3 c 1.9 -1.9 3.6 -1.9 5.5 0 l 10.4 10.4 c 1.8 1.8 1.8 3.6 0.1 5.4 q -5.2 5.2 -10.4 10.4 c -1.7 1.7 -3.4 1.7 -5.2 0.1 c -3.6 -3.2 -7.2 -6.4 -10.7 -9.6 a 20 20 0 0 1 -2 -2.5 Z m 8.2 0.8 l 6.8 6 c 2.2 -2.3 4.4 -4.5 6.3 -6.5 l -6.3 -6.4 Z"/><path class="cls-4" d="M 189.4 157.5 c 0 5 -1.3 8.1 -3.9 10.7 l -21.8 21.7 c -1.8 1.8 -4.2 1.9 -5.8 0.3 s -1.4 -4 0.3 -5.8 Q 169 173.8 179.7 163.1 c 2.8 -2.8 2.8 -5.8 0 -8.6 Q 166.4 141.1 153 127.8 c -2.8 -2.8 -5.8 -2.8 -8.6 0 l -27.1 27.1 c -2.5 2.5 -2.5 5.3 0 7.8 q 23.7 23.7 47.4 47.3 q 10.6 10.6 21.1 21.1 a 13 13 0 0 1 0.1 18 q -14 14.1 -28.2 28.2 a 13 13 0 0 1 -17.6 0.3 c -1.1 -1 -2.1 -2.1 -3.2 -3.1 l -24.8 -24.8 c -5.6 -5.6 -5.6 -13.6 0 -19.2 l 20.7 -20.7 c 1.8 -1.8 4.2 -2 5.8 -0.4 s 1.5 4 -0.4 5.8 l -20.6 20.6 c -2.7 2.7 -2.7 5.8 0 8.5 q 13.4 13.4 26.8 26.8 c 2.7 2.7 5.8 2.7 8.5 0 l 26.8 -26.8 c 2.8 -2.8 2.8 -5.8 0 -8.5 l -43 -43 q -12.5 -12.5 -25 -24.9 a 12.7 12.7 0 0 1 0 -18.4 l 27.6 -27.6 a 13 13 0 0 1 18.6 -0.2 c 9.3 9.2 18.5 18.4 27.7 27.6 A 12.2 12.2 0 0 1 189.4 157.5 Z"/><path class="cls-3" d="M 96.8 67.5 a 13.3 13.3 0 0 1 9.9 4 q 13.6 13.6 27.2 27.2 c 5.6 5.7 5.3 14 -0.6 19.5 c -2.9 2.7 -5.6 5.6 -8.4 8.4 L 112.2 139.3 c -1.8 1.7 -4.1 1.9 -5.7 0.3 s -1.5 -4 0.3 -5.8 l 21.6 -21.5 c 2.5 -2.5 2.6 -5.7 0.1 -8.2 q -13.6 -13.7 -27.4 -27.4 c -2.4 -2.4 -5.6 -2.3 -8.1 0.2 L 66 104.1 c -2.8 2.8 -2.8 5.5 0 8.3 q 16.7 16.7 33.5 33.4 a 4 4 0 0 1 1.3 4.2 a 3.8 3.8 0 0 1 -5.9 2 a 9.7 9.7 0 0 1 -1 -1 q -16.2 -16.2 -32.4 -32.4 c -2 -2 -3.9 -4.1 -4.6 -7 c -1.2 -4.6 -0.3 -8.8 3.1 -12.2 C 69.3 90 78.7 80.6 88.2 71.2 A 12.3 12.3 0 0 1 96.8 67.5 Z"/><path class="cls-3" d="M 251 200.1 a 12.9 12.9 0 0 1 -3.9 9.3 l -27.3 27.3 c -5.3 5.3 -13.3 5.5 -18.7 0.3 c -7.5 -7.3 -14.8 -14.8 -22.2 -22.3 a 3.7 3.7 0 0 1 0 -5.3 a 3.8 3.8 0 0 1 5.3 -0.2 c 1.2 1.1 2.4 2.4 3.5 3.6 q 9.1 9.1 18.1 18.2 c 2.9 3 5.9 2.9 8.9 0 l 26.6 -26.6 c 2.8 -2.8 2.8 -5.8 0 -8.6 q -13.5 -13.5 -27 -27 c -2.6 -2.6 -5.5 -2.6 -8.1 0 l -31.8 31.9 c -0.8 0.8 -1.5 1.6 -2.4 2.4 a 3.8 3.8 0 0 1 -5.1 -5.6 q 7.9 -8 15.8 -15.9 L 201 163.3 c 5.5 -5.5 13.2 -5.5 18.7 0 q 13.6 13.6 27.2 27.2 A 13.3 13.3 0 0 1 251 200.1 Z"/><path class="cls-3" d="M 46.3 201.8 a 12.8 12.8 0 0 1 3.8 -9.5 q 13.8 -13.8 27.6 -27.6 a 13 13 0 0 1 18.6 0 c 7.4 7.3 14.7 14.7 22 22.1 a 3.8 3.8 0 0 1 -5.2 5.5 c -1.7 -1.6 -3.3 -3.3 -4.9 -4.9 Q 99.8 179 91.4 170.6 c -2.9 -2.9 -5.9 -2.9 -8.8 0 L 55.9 197.2 c -2.8 2.8 -2.8 5.9 0 8.7 l 26.9 26.9 c 2.7 2.7 5.5 2.7 8.1 0 q 16.7 -16.8 33.5 -33.5 a 4.2 4.2 0 0 1 3.4 -1.5 a 3.6 3.6 0 0 1 3.3 2.3 a 3.7 3.7 0 0 1 -0.6 4 c -0.2 0.2 -0.4 0.4 -0.6 0.6 L 96 238.6 a 12.6 12.6 0 0 1 -18.1 0.1 q -14 -13.9 -27.8 -27.8 A 12.4 12.4 0 0 1 46.3 201.8 Z"/><path class="cls-3" d="M 160 108.4 a 12.8 12.8 0 0 1 3.9 -9.5 c 9.2 -9.2 18.3 -18.4 27.5 -27.5 a 13 13 0 0 1 18.8 0.1 Q 223.9 85.3 237.6 99 a 12.8 12.8 0 0 1 -0.5 18.9 c -1.9 1.7 -3.6 3.6 -5.5 5.4 l -28.1 28.1 a 3.8 3.8 0 0 1 -4.8 0.9 a 3.7 3.7 0 0 1 -1.8 -4.3 a 4.7 4.7 0 0 1 1.1 -1.9 q 16.4 -16.4 32.8 -32.8 c 0.4 -0.4 0.8 -0.7 1.1 -1.1 c 2.4 -2.5 2.4 -5.4 0 -7.8 q -11 -11 -22 -22 c -1.8 -1.8 -3.5 -3.5 -5.3 -5.3 c -2.7 -2.6 -5.8 -2.6 -8.4 0 Q 183 90.5 169.5 104 c -2.7 2.7 -2.7 5.8 0.1 8.5 Q 180.3 123.2 191 133.8 a 4 4 0 0 1 1.3 4.2 a 3.8 3.8 0 0 1 -6.4 1.5 c -3.4 -3.3 -6.8 -6.7 -10.1 -10.1 q -5.8 -5.8 -11.6 -11.6 A 12.8 12.8 0 0 1 160 108.4 Z"/><path class="cls-3" d="M 148 95.1 a 12.7 12.7 0 0 1 -8.5 -3.8 c -8 -8 -16 -16.1 -24.1 -24.1 a 4.1 4.1 0 0 1 -0.4 -5.8 c 1.6 -1.6 4 -1.5 5.8 0.3 Q 132.6 73.6 144.3 85.4 c 2.8 2.9 5.8 2.8 8.7 0 L 176.9 61.5 c 1.2 -1.3 2.6 -2 4.4 -1.4 a 3.8 3.8 0 0 1 1.5 6.3 c -3.5 3.6 -7.1 7.1 -10.6 10.6 L 157.9 91.3 A 13.3 13.3 0 0 1 148 95.1 Z"/><path class="cls-3" d="M 229.5 149.8 a 5.3 5.3 0 0 1 1.1 0.7 q 9 8.9 17.9 17.9 a 3.8 3.8 0 1 1 -5.3 5.5 c -6.9 -6.9 -13.8 -13.7 -20.6 -20.6 a 5.1 5.1 0 0 1 0.1 -7.4 Q 232.8 135.5 243 125.1 a 3.8 3.8 0 0 1 5.7 -0.3 a 3.8 3.8 0 0 1 -0.1 5.5 q -8.9 9.1 -17.8 18.1 a 9.1 9.1 0 0 1 -1.1 0.8 Z"/><path class="cls-4" d="M 148.8 174.3 l 5.8 -5.8 q 6.5 -6.5 12.9 -12.9 c 2 -2 4.9 -1.7 6.2 0.6 a 3.8 3.8 0 0 1 -0.7 4.7 c -2.2 2.2 -4.3 4.4 -6.5 6.5 q -6.9 6.9 -13.8 13.8 a 5.2 5.2 0 0 1 -7.7 0.1 q -10.3 -10.1 -20.6 -20.2 a 4 4 0 0 1 -1.4 -3.3 a 3.6 3.6 0 0 1 2.4 -3.3 a 3.7 3.7 0 0 1 4.1 0.9 c 2.2 2.1 4.3 4.2 6.5 6.4 l 11.6 11.4 C 148 173.6 148.4 174 148.8 174.3 Z"/><path class="cls-3" d="M 69.1 148.9 a 6.1 6.1 0 0 1 -1.2 -0.7 Q 59 139.4 50.2 130.6 c -1.5 -1.5 -1.9 -3.1 -1 -4.8 a 3.8 3.8 0 0 1 6.1 -1 c 2.5 2.4 4.9 4.8 7.3 7.3 L 75.6 145.2 c 2.5 2.5 2.5 5.5 0 8 q -10.1 10.3 -20.2 20.5 a 3.8 3.8 0 0 1 -4 1.1 a 3.6 3.6 0 0 1 -2.6 -3 a 3.9 3.9 0 0 1 1.3 -3.6 l 17.8 -18.1 C 68.2 149.9 68.5 149.6 69.1 148.9 Z"/><path class="cls-3" d="M 148.9 69.5 l 10.9 -11 l 7.7 -7.7 c 1.7 -1.7 4.1 -1.9 5.7 -0.3 s 1.5 3.9 -0.3 5.7 q -10.1 10.1 -20.2 20.2 a 5.1 5.1 0 0 1 -7.5 0.2 q -10.5 -10.3 -21 -20.7 a 3.7 3.7 0 0 1 -0.7 -4.6 a 3.6 3.6 0 0 1 4.3 -1.8 a 6.3 6.3 0 0 1 2.3 1.5 q 9.2 9 18.3 18 Z"/><path class="cls-4" d="M 148.6 225 l -18.9 18.9 a 3.8 3.8 0 0 1 -5.9 -4.8 c 0.3 -0.3 0.5 -0.6 0.8 -0.9 l 19.6 -19.6 c 2.7 -2.7 5.7 -2.7 8.4 0 q 10.1 10 20.3 19.9 a 3.9 3.9 0 0 1 0.4 5.6 a 3.7 3.7 0 0 1 -5.5 0 q -7.3 -7 -14.5 -14.2 C 151.7 228.3 150.2 226.7 148.6 225 Z"/><path class="cls-3" d="M 194 200.4 a 11.3 11.3 0 0 1 1.3 0.9 c 5.5 5.5 11.1 11.1 16.6 16.6 a 4 4 0 0 1 1.3 4 a 3.5 3.5 0 0 1 -2.6 2.7 a 3.7 3.7 0 0 1 -3.9 -1 q -6.3 -6.4 -12.7 -12.7 q -3.5 -3.5 -7 -7 a 5 5 0 0 1 -0.1 -7.2 q 9.9 -10.2 19.9 -20.3 a 3.7 3.7 0 0 1 4.4 -0.8 a 3.5 3.5 0 0 1 2 3.9 a 6 6 0 0 1 -1.5 2.7 c -5.7 5.9 -11.4 11.7 -17.1 17.5 Z"/><path class="cls-3" d="M 103.1 201.5 c -0.4 -0.4 -0.7 -0.7 -1 -1 q -8.3 -8.3 -16.6 -16.6 A 4.4 4.4 0 0 1 84 180.7 a 3.6 3.6 0 0 1 2.2 -3.5 a 3.7 3.7 0 0 1 4.2 0.7 q 4.3 4.2 8.5 8.5 q 5.6 5.6 11.3 11.3 a 5 5 0 0 1 0.1 7.5 q -9.8 10 -19.6 19.9 c -2.2 2.3 -5.7 1.6 -6.5 -1.3 a 3.7 3.7 0 0 1 1 -4 L 101.7 203 C 102.2 202.5 102.6 202.1 103.1 201.5 Z"/><path class="cls-3" d="M 97.7 122.1 l 10.2 -10.2 l 7 -7 c 1.8 -1.7 4 -1.9 5.6 -0.3 s 1.5 4 -0.3 5.7 l -18.8 18.8 a 5.1 5.1 0 0 1 -7.7 0 q -9.7 -9.5 -19.3 -19 a 3.9 3.9 0 0 1 -0.2 -5.6 a 3.8 3.8 0 0 1 5.5 0 q 8.8 8.5 17.5 17.1 C 97.3 121.8 97.5 121.9 97.7 122.1 Z"/><path class="cls-3" d="M 200.5 122.3 l 11.2 -11.2 l 6.4 -6.4 a 3.8 3.8 0 0 1 5.5 -0.2 a 3.8 3.8 0 0 1 -0.1 5.6 q -9.6 9.6 -19.2 19.2 a 5 5 0 0 1 -7.3 0.1 q -9.8 -9.6 -19.5 -19.2 a 3.8 3.8 0 1 1 5.3 -5.5 q 6.3 6.2 12.7 12.4 C 197.1 118.8 198.7 120.5 200.5 122.3 Z"/><path class="cls-2" d="M 198.2 332.8 L 178 332.8 c -4.4 0 -8.8 0 -13.2 0.1 a 5.2 5.2 0 0 1 0.7 -10.4 h 31.9 a 5.2 5.2 0 0 1 5.3 4.6 A 5.2 5.2 0 0 1 198.2 332.8 Z"/><path class="cls-3" d="M 253.6 164.1 a 11.8 11.8 0 0 1 -2.3 -1.2 c -3.9 -3.5 -7.8 -7 -11.7 -10.5 a 3.2 3.2 0 0 1 -0.1 -4.9 q 5.8 -5.8 11.6 -11.6 a 3.2 3.2 0 0 1 4.7 0 q 5.5 5.5 11 11 a 3.3 3.3 0 0 1 0 4.9 q -5.4 5.5 -10.9 10.8 A 11.7 11.7 0 0 1 253.6 164.1 Z M 253.4 143 c -2.2 2.2 -4.5 4.5 -6.9 6.8 l 6.8 6.1 c 2.3 -2.3 4.4 -4.4 6.5 -6.5 Z"/><path class="cls-2" d="M 132.3 332.8 c -2.2 0 -4.5 -0.1 -6.7 -0.1 l -25 0.1 a 5.2 5.2 0 0 1 -4.6 -5.5 a 5.1 5.1 0 0 1 5.3 -5 h 30.3 a 5.2 5.2 0 0 1 5.4 4.8 A 5.2 5.2 0 0 1 132.3 332.8 Z"/><path class="cls-2" d="M 148.8 57.9 a 9.8 9.8 0 0 1 -2.4 -1.3 c -3.7 -3.6 -7.3 -7.3 -10.9 -10.9 a 3.2 3.2 0 0 1 0 -4.7 q 5.5 -5.6 11.1 -11.1 a 3.2 3.2 0 0 1 4.6 -0.1 q 5.7 5.5 11.3 11.1 a 3.1 3.1 0 0 1 0.1 4.4 Q 156.8 51.1 151 56.8 A 8.7 8.7 0 0 1 148.8 57.9 Z m -6.2 -14.7 l 6.3 6.3 c 2 -2 4.2 -4.2 6.2 -6.2 l -6.2 -6.4 Z"/><path class="cls-4" d="M 148.7 155.8 c 2.9 -2.9 5.7 -5.8 8.6 -8.6 a 3.8 3.8 0 0 1 6.3 3.7 a 5.4 5.4 0 0 1 -1.3 2 q -5.3 5.3 -10.6 10.6 a 4 4 0 0 1 -6.1 0 q -5.3 -5.2 -10.5 -10.5 c -1.8 -1.8 -1.9 -4.1 -0.2 -5.7 s 3.9 -1.4 5.6 0.4 Z"/><path class="cls-3" d="M 212.3 199.8 l 6.2 6.1 c 0.9 0.9 1.8 1.7 2.6 2.6 a 3.8 3.8 0 0 1 0 5.3 a 3.8 3.8 0 0 1 -5.3 0.2 q -5.8 -5.7 -11.4 -11.4 a 3.8 3.8 0 0 1 0.2 -5.5 q 5.4 -5.4 10.8 -10.8 a 3.8 3.8 0 0 1 5.5 -0.2 a 3.9 3.9 0 0 1 -0.1 5.6 c -2.3 2.4 -4.7 4.8 -7.1 7.1 A 13.5 13.5 0 0 1 212.3 199.8 Z"/><path class="cls-3" d="M 84.8 201.7 l -8.3 -8.3 a 3.8 3.8 0 0 1 -1.2 -3.8 a 3.7 3.7 0 0 1 6.1 -2 c 4 3.8 7.8 7.7 11.6 11.6 a 3.7 3.7 0 0 1 0 5.1 q -5.6 5.7 -11.4 11.4 a 3.8 3.8 0 0 1 -5.3 -5.5 c 2.5 -2.5 5 -5 7.5 -7.6 Z"/><path class="cls-3" d="M 97.3 104.3 L 105.5 96 a 3.8 3.8 0 1 1 5.4 5.4 q -5.3 5.4 -10.8 10.8 c -1.9 1.9 -4.1 1.8 -6 -0.1 L 83.6 101.5 A 3.8 3.8 0 1 1 88.9 96 c 2.5 2.4 4.9 4.9 7.4 7.4 C 96.6 103.7 96.9 104 97.3 104.3 Z"/><path class="cls-3" d="M 200.8 104.3 c 2.8 -2.8 5.4 -5.5 8.1 -8.1 a 6.3 6.3 0 0 1 2.5 -1.5 a 3.6 3.6 0 0 1 4.1 1.8 a 3.7 3.7 0 0 1 -0.7 4.5 q -5.6 5.7 -11.3 11.3 a 3.7 3.7 0 0 1 -5.3 0.1 q -5.7 -5.6 -11.3 -11.3 a 3.8 3.8 0 0 1 0.2 -5.4 a 3.8 3.8 0 0 1 5.4 0.2 C 195.2 98.7 197.9 101.5 200.8 104.3 Z"/><path class="cls-4" d="M 148.6 243.8 c -2.9 2.9 -5.7 5.7 -8.5 8.5 a 3.7 3.7 0 0 1 -4.1 1 a 3.7 3.7 0 0 1 -2.5 -3.1 a 3.6 3.6 0 0 1 1.1 -3.2 q 5.6 -5.6 11.2 -11.2 a 3.9 3.9 0 0 1 5.6 0 q 5.5 5.4 10.9 10.9 a 3.8 3.8 0 1 1 -5.5 5.3 C 154.1 249.4 151.4 246.7 148.6 243.8 Z"/>
</svg>
