<svg id="Layer_1" data-name="Layer 1" xmlns="http://www.w3.org/2000/svg" viewBox="0 0 821.53 361.68"><defs><style>.cls-1{fill:#01945e;}.cls-2{fill:#515050;}.cls-3{fill:#525151;}.cls-4{fill:#02945f;}</style></defs><path class="cls-1" d="M399.06,218.56v9.12H365V218.6h10.63l-3-8.53c-2.49-7.07-5-14.14-7.44-21.23a1.27,1.27,0,0,0-1.44-1q-17.2,0-34.42,0c-.6,0-1,0-1.29.73q-5.7,14.73-11.44,29.45c-.05.14-.07.29-.13.52h11.89v9.17h-33v-9.14c2.68,0,5.35,0,8,0a1.4,1.4,0,0,0,1.56-1.05q18.27-44.9,36.57-89.76a1.62,1.62,0,0,1,1.79-1.24c3.6.08,7.2.07,10.8,0a1.58,1.58,0,0,1,1.78,1.25q9.9,26.88,19.87,53.75,6.63,17.9,13.23,35.8a1.56,1.56,0,0,0,1.77,1.26C393.47,218.5,396.22,218.56,399.06,218.56Zm-37.49-39.9-14.25-40c-4.27,13.37-10.31,26.43-15.24,40Z"/><path class="cls-1" d="M712.29,116.62h24.53c0,1.59,0,3.17,0,4.76-.09,11.51-.08,23-.33,34.54-.09,4.18-.79,8.34-1.21,12.51a2.3,2.3,0,0,0,0,1c.23-.58.44-1.17.69-1.75,3.92-9.1,11-14.19,20.57-15.88a29.73,29.73,0,0,1,19.11,2.68,26.74,26.74,0,0,1,13.51,16.26c4.39,13.67,3.84,27.14-3,39.95-5.36,10.06-14.07,15.79-25.18,17.87a57.41,57.41,0,0,1-31.53-3.2c-1.49-.57-3-1.08-4.51-1.57a1,1,0,0,1-.79-1.11q.15-19.32.25-38.63c0-3.64.08-7.27.09-10.91,0-9.44,0-18.88.09-28.32,0-5.91.1-11.83.15-17.74,0-.44,0-.87,0-1.41H712.29Zm67.09,70.15c-.07-1-.15-2.94-.36-4.88a32,32,0,0,0-.73-4c-2.39-10.15-8.82-15.87-18.59-16.58-8.53-.61-15.64,3.28-19.42,10.72a35.05,35.05,0,0,0-3.48,14.57c-.18,3.83-.21,7.67-.3,11.5-.14,5.79-.28,11.58-.37,17.38a1.12,1.12,0,0,0,.58.84c5.82,2.24,11.77,3.79,18.11,3.15,8.52-.85,15.24-4.65,19.72-12.09C778.17,201.34,779.32,194.67,779.38,186.77Z"/><path class="cls-1" d="M703.6,218.58h10.64v9.12H692.92a93.4,93.4,0,0,1,1-15.65c-.17.36-.34.71-.49,1.08a30.89,30.89,0,0,1-4.86,8.35,21.07,21.07,0,0,1-13,7.42c-6,1-12,.88-17.79-1.46-7-2.86-10.66-8.33-11.63-15.72a25.25,25.25,0,0,1,.54-10c1.5-5.53,5.21-9.14,10.24-11.52a45.07,45.07,0,0,1,15.81-4.05c6.4-.52,12.83-.67,19.25-1,.35,0,.7,0,1.15,0,0-5.32.3-10.56-1.44-15.61s-5.51-7.92-10.77-8.66a43.8,43.8,0,0,0-20.51,2.31,1.12,1.12,0,0,0-.86,1.31c0,3.47,0,6.94,0,10.49H648.81v-.87q0-8,0-16.07c0-.63.11-1,.77-1.26,8.47-3.33,17.16-5.57,26.33-5.47a47.55,47.55,0,0,1,12.44,1.6c8.62,2.45,13.64,8.14,15.39,16.86.92,4.59.76,9.23.66,13.86-.13,6.39-.31,12.78-.47,19.17-.11,4.8-.2,9.59-.31,14.38Zm-10.4-25.06c-3,0-5.74,0-8.5,0-5.76.09-11.49.47-17,2.18a15,15,0,0,0-7.34,4.31c-4.89,5.75-2.71,15.62,4.34,18.7a18.46,18.46,0,0,0,19.46-2.37C691.6,210.69,692.87,202.31,693.2,193.52Z"/><path class="cls-1" d="M596.49,188.71c-.3,9-2,17.66-7,25.36-6.11,9.46-14.95,14.36-26.07,15.25a38.66,38.66,0,0,1-20.3-3.49,31.72,31.72,0,0,1-17.25-20.55A47.09,47.09,0,0,1,528.61,171c5.88-12.27,15.91-18.75,29.48-19.5,9.39-.52,18.09,1.66,25.53,7.7,6.59,5.35,10.32,12.4,11.85,20.64C596,182.73,596.16,185.74,596.49,188.71Zm-12.69,1.78a39,39,0,0,0-2.25-14c-3.54-9.36-10.18-14.72-20.31-15.17-9.48-.43-16.57,3.63-21,12a33.53,33.53,0,0,0-3.62,14.15c-.39,7,.39,13.73,3.69,20,4.15,7.87,10.75,11.95,19.63,12s15.57-3.63,19.89-11.4C582.85,202.68,583.76,196.68,583.8,190.49Z"/><path class="cls-1" d="M515.82,215.49c-.17,3.25-.31,6.44-.52,9.62a1.27,1.27,0,0,1-.69.91c-11.62,3.55-23.38,5-35.26,1.52-12.59-3.67-20.26-12.23-23.17-24.9-2.26-9.89-2.12-19.79,1.8-29.32,4.92-12,14-19,26.68-21.21,10.41-1.81,20.68-.45,30.71,2.76.37.12.88.63.88,1,.06,6.24,0,12.47,0,18.8H505.53c0-3.58,0-7.13,0-10.69,0-.61-.05-1-.78-1.22-7.63-1.81-15.25-2.4-22.72.59-6.81,2.74-11,8-13,14.89-2.66,9.22-2.66,18.41,1.49,27.25,3.63,7.75,10,12,18.32,13.53,7.76,1.46,15.25.1,22.64-2.25,1.36-.44,2.74-.85,4.11-1.28A1,1,0,0,1,515.82,215.49Z"/><path class="cls-1" d="M627.05,116.61c-.19,34-.38,67.93-.57,101.94h11.78v9.12H604V218.6h10.6c.2-31,.39-61.9.58-92.9H600.81v-9.09Z"/><path class="cls-1" d="M424.16,218.59h12.45v9.1h-34.9V218.6H412.2c.2-18.8.39-37.48.58-56.25H400.16v-9.14h24.49c.21,7.71-.8,15.34-1.22,23.07.1-.34.21-.68.3-1,1.29-5.09,2.94-10,5.95-14.4,4.17-6.06,10.1-8.81,17.26-8.95a60.56,60.56,0,0,1,8.55.86c.3,0,.79.51.77.75-.32,3.37-.72,6.73-1.09,10-2.35-.32-4.58-.79-6.83-.89-9-.41-15.21,4-19.5,11.48a31.81,31.81,0,0,0-4.09,15c-.29,9.31-.4,18.62-.59,27.93C424.15,217.5,424.16,218,424.16,218.59Z"/><path class="cls-2" d="M149,333a15.76,15.76,0,0,1-1.69-.52,5,5,0,0,1-3.23-4.76q0-17,0-33.93a5.23,5.23,0,0,1,10.46,0q0,16.91,0,33.81a5.08,5.08,0,0,1-4.3,5.14,4,4,0,0,0-.53.22Z"/><path class="cls-3" d="M29.28,149.16a28.69,28.69,0,0,1,2-2.59c3.38-3.45,6.82-6.85,10.24-10.26,1.89-1.9,3.6-1.89,5.49,0l10.42,10.42c1.81,1.82,1.84,3.63.05,5.43q-5.19,5.22-10.42,10.42c-1.7,1.69-3.4,1.7-5.17.11-3.56-3.2-7.15-6.37-10.68-9.61a20,20,0,0,1-2-2.47Zm8.19.77,6.75,6c2.2-2.25,4.36-4.46,6.34-6.5l-6.31-6.36Z"/><path class="cls-4" d="M189.37,157.48c0,5-1.32,8.1-3.9,10.68l-21.75,21.68c-1.8,1.8-4.15,1.94-5.75.35s-1.43-4,.35-5.75Q169,173.78,179.73,163.1c2.77-2.76,2.77-5.83,0-8.61Q166.37,141.13,153,127.77c-2.78-2.78-5.84-2.79-8.6,0l-27.14,27.15c-2.45,2.45-2.48,5.35,0,7.81q23.67,23.66,47.37,47.29,10.57,10.55,21.14,21.1a13,13,0,0,1,.06,18q-14,14.14-28.16,28.18a13,13,0,0,1-17.56.35c-1.1-1-2.12-2.06-3.16-3.11l-24.77-24.77c-5.61-5.61-5.61-13.62,0-19.22l20.71-20.68c1.79-1.78,4.18-2,5.75-.4s1.48,4-.38,5.84l-20.64,20.59c-2.71,2.71-2.72,5.8,0,8.51q13.39,13.41,26.8,26.81c2.68,2.69,5.85,2.68,8.53,0l26.8-26.82c2.76-2.75,2.76-5.75,0-8.49l-43-43q-12.48-12.47-25-24.89a12.71,12.71,0,0,1,0-18.35l27.57-27.59a13,13,0,0,1,18.61-.19c9.28,9.16,18.46,18.42,27.66,27.65A12.23,12.23,0,0,1,189.37,157.48Z"/><path class="cls-3" d="M96.76,67.53a13.34,13.34,0,0,1,9.94,4q13.62,13.6,27.22,27.24c5.64,5.69,5.31,14-.55,19.48-2.9,2.7-5.62,5.58-8.42,8.38L112.2,139.32c-1.75,1.74-4.08,1.88-5.65.34s-1.54-3.95.26-5.75l21.61-21.48c2.48-2.47,2.62-5.71.15-8.2q-13.63-13.74-27.39-27.4c-2.43-2.41-5.62-2.26-8.09.2L66,104.09c-2.78,2.78-2.76,5.55,0,8.33q16.74,16.68,33.47,33.36a4,4,0,0,1,1.33,4.21,3.77,3.77,0,0,1-5.9,2,9.68,9.68,0,0,1-1-1q-16.22-16.18-32.44-32.36c-2-2-3.91-4.1-4.64-7-1.16-4.63-.26-8.81,3.09-12.2C69.28,90,78.72,80.57,88.15,71.18A12.33,12.33,0,0,1,96.76,67.53Z"/><path class="cls-3" d="M251,200.13a12.87,12.87,0,0,1-3.89,9.32l-27.31,27.32c-5.34,5.33-13.34,5.55-18.71.27-7.47-7.34-14.8-14.83-22.17-22.28a3.74,3.74,0,0,1,0-5.3,3.81,3.81,0,0,1,5.31-.18c1.24,1.13,2.37,2.38,3.55,3.57q9.06,9.09,18.12,18.19c2.93,3,5.92,2.94,8.86,0l26.63-26.64c2.77-2.77,2.76-5.82,0-8.61q-13.48-13.5-27-27c-2.62-2.63-5.46-2.63-8.07,0l-31.78,31.85c-.79.79-1.53,1.64-2.38,2.36a3.79,3.79,0,0,1-5.09-5.61q7.89-8,15.82-15.9L201,163.3c5.46-5.46,13.21-5.46,18.69,0q13.62,13.62,27.23,27.23A13.3,13.3,0,0,1,251,200.13Z"/><path class="cls-3" d="M46.27,201.8a12.76,12.76,0,0,1,3.82-9.51q13.77-13.81,27.57-27.57a13,13,0,0,1,18.63,0c7.38,7.32,14.67,14.73,22,22.11a3.8,3.8,0,0,1-5.24,5.5c-1.7-1.58-3.27-3.29-4.91-4.93Q99.75,179,91.36,170.61c-2.88-2.89-5.91-2.89-8.79,0L55.94,197.23c-2.81,2.82-2.8,5.88,0,8.71l26.89,26.9c2.68,2.68,5.45,2.68,8.13,0q16.74-16.77,33.47-33.55a4.23,4.23,0,0,1,3.37-1.52,3.59,3.59,0,0,1,3.25,2.28,3.73,3.73,0,0,1-.62,4c-.18.22-.39.4-.58.6L96.05,238.57a12.58,12.58,0,0,1-18.15.1q-14-13.86-27.82-27.83A12.39,12.39,0,0,1,46.27,201.8Z"/><path class="cls-3" d="M160,108.36a12.77,12.77,0,0,1,3.86-9.47c9.15-9.17,18.28-18.36,27.49-27.47a13,13,0,0,1,18.79.13Q223.89,85.28,237.61,99a12.82,12.82,0,0,1-.47,18.87c-1.88,1.72-3.65,3.58-5.46,5.39l-28.1,28.05a3.82,3.82,0,0,1-4.78.88,3.67,3.67,0,0,1-1.79-4.3,4.7,4.7,0,0,1,1.14-1.92q16.4-16.42,32.83-32.81c.37-.37.78-.69,1.14-1.07,2.41-2.48,2.41-5.37,0-7.82q-11-11-22-22c-1.75-1.76-3.5-3.52-5.26-5.26-2.66-2.63-5.78-2.62-8.44,0Q183,90.55,169.53,104c-2.69,2.7-2.67,5.81.06,8.53Q180.3,123.21,191,133.85a4,4,0,0,1,1.27,4.22,3.79,3.79,0,0,1-6.38,1.47c-3.4-3.33-6.76-6.7-10.13-10.06q-5.82-5.79-11.64-11.59A12.83,12.83,0,0,1,160,108.36Z"/><path class="cls-3" d="M148,95.12a12.68,12.68,0,0,1-8.54-3.8c-8-8-16-16.1-24.11-24.07a4.06,4.06,0,0,1-.43-5.76c1.59-1.62,4-1.53,5.84.33Q132.55,73.6,144.33,85.4c2.84,2.85,5.79,2.84,8.65,0L176.9,61.45c1.24-1.26,2.62-2,4.4-1.4a3.75,3.75,0,0,1,1.5,6.29c-3.51,3.56-7.06,7.08-10.6,10.62L157.87,91.3A13.27,13.27,0,0,1,148,95.12Z"/><path class="cls-3" d="M229.49,149.83a5.25,5.25,0,0,1,1.14.69q9,8.92,17.9,17.89a3.82,3.82,0,1,1-5.34,5.45c-6.88-6.86-13.77-13.72-20.6-20.62a5.07,5.07,0,0,1,.08-7.41Q232.81,135.46,243,125.1a3.83,3.83,0,0,1,5.65-.27,3.76,3.76,0,0,1-.14,5.55q-8.9,9.09-17.81,18.15a9.09,9.09,0,0,1-1.05.8Z"/><path class="cls-4" d="M148.84,174.34l5.8-5.82q6.45-6.45,12.89-12.89c2-2,4.91-1.7,6.22.59a3.79,3.79,0,0,1-.73,4.71c-2.16,2.2-4.35,4.36-6.53,6.54q-6.9,6.92-13.82,13.82a5.15,5.15,0,0,1-7.67.07q-10.31-10.12-20.62-20.24a4,4,0,0,1-1.39-3.3,3.57,3.57,0,0,1,2.44-3.26,3.69,3.69,0,0,1,4.09.89c2.18,2.11,4.34,4.24,6.51,6.37l11.61,11.45C148,173.63,148.4,174,148.84,174.34Z"/><path class="cls-3" d="M69.06,148.93a6.13,6.13,0,0,1-1.2-.71Q59,139.42,50.21,130.59c-1.5-1.5-1.85-3.15-1-4.77a3.76,3.76,0,0,1,6.07-1c2.46,2.4,4.87,4.85,7.3,7.28L75.6,145.19c2.52,2.52,2.5,5.46,0,8q-10.1,10.26-20.16,20.54a3.75,3.75,0,0,1-4,1.11,3.63,3.63,0,0,1-2.6-3,3.89,3.89,0,0,1,1.27-3.56l17.83-18.12C68.2,149.87,68.46,149.57,69.06,148.93Z"/><path class="cls-3" d="M148.93,69.49l10.93-11,7.71-7.72c1.74-1.73,4.07-1.85,5.65-.31s1.54,3.92-.28,5.74q-10.08,10.09-20.17,20.18a5.13,5.13,0,0,1-7.49.21q-10.54-10.3-21-20.67a3.72,3.72,0,0,1-.69-4.61,3.64,3.64,0,0,1,4.3-1.76,6.33,6.33,0,0,1,2.26,1.48q9.18,9,18.3,18Z"/><path class="cls-4" d="M148.58,225l-18.89,18.9a3.81,3.81,0,0,1-5.89-4.84c.25-.31.53-.59.81-.88l19.6-19.59c2.7-2.7,5.67-2.69,8.38,0q10.13,10,20.28,19.9a3.89,3.89,0,0,1,.37,5.57,3.74,3.74,0,0,1-5.54,0q-7.27-7-14.48-14.18C151.66,228.34,150.18,226.71,148.58,225Z"/><path class="cls-3" d="M194,200.39a11.25,11.25,0,0,1,1.25.93c5.55,5.53,11.08,11.09,16.63,16.62a4,4,0,0,1,1.34,4,3.5,3.5,0,0,1-2.6,2.72,3.71,3.71,0,0,1-3.85-1q-6.33-6.37-12.71-12.73-3.53-3.51-7-7a5,5,0,0,1-.11-7.21q9.93-10.15,19.91-20.27a3.74,3.74,0,0,1,4.41-.75,3.47,3.47,0,0,1,2,3.85,6,6,0,0,1-1.53,2.74c-5.66,5.86-11.4,11.65-17.12,17.47Z"/><path class="cls-3" d="M103.11,201.5c-.38-.4-.67-.72-1-1q-8.31-8.31-16.62-16.61A4.37,4.37,0,0,1,84,180.74a3.64,3.64,0,0,1,2.23-3.53,3.68,3.68,0,0,1,4.2.73q4.26,4.22,8.48,8.47,5.64,5.64,11.28,11.28a5,5,0,0,1,.11,7.47q-9.76,10-19.56,19.93c-2.24,2.27-5.66,1.58-6.55-1.3a3.74,3.74,0,0,1,1-3.95L101.7,203C102.15,202.54,102.57,202.07,103.11,201.5Z"/><path class="cls-3" d="M97.67,122.13l10.23-10.24,7-7c1.75-1.74,4-1.86,5.64-.3s1.51,4-.28,5.74l-18.82,18.82a5.11,5.11,0,0,1-7.65,0q-9.67-9.48-19.34-19a3.88,3.88,0,0,1-.22-5.58,3.79,3.79,0,0,1,5.46,0q8.76,8.53,17.48,17.1C97.32,121.84,97.45,121.94,97.67,122.13Z"/><path class="cls-3" d="M200.47,122.3l11.15-11.16,6.37-6.36a3.84,3.84,0,0,1,5.55-.24,3.8,3.8,0,0,1-.09,5.56q-9.55,9.62-19.16,19.17a5,5,0,0,1-7.3.06q-9.77-9.57-19.5-19.16a3.82,3.82,0,1,1,5.31-5.48q6.34,6.21,12.66,12.43C197.13,118.78,198.74,120.5,200.47,122.3Z"/><path class="cls-2" d="M198.22,332.81,178,332.76c-4.39,0-8.78,0-13.18.06a5.23,5.23,0,0,1,.7-10.42h31.89a5.17,5.17,0,0,1,5.35,4.62A5.23,5.23,0,0,1,198.22,332.81Z"/><path class="cls-3" d="M253.56,164.1a11.78,11.78,0,0,1-2.28-1.22c-3.93-3.45-7.83-6.95-11.71-10.46a3.22,3.22,0,0,1-.12-4.88q5.78-5.85,11.62-11.62a3.17,3.17,0,0,1,4.71,0q5.55,5.49,11,11a3.31,3.31,0,0,1,0,4.92q-5.38,5.48-10.86,10.85A11.72,11.72,0,0,1,253.56,164.1ZM253.37,143c-2.24,2.22-4.52,4.51-6.87,6.85l6.81,6.1c2.25-2.25,4.42-4.41,6.51-6.51Z"/><path class="cls-2" d="M132.25,332.82c-2.24,0-4.47-.06-6.71-.06l-25,.05a5.18,5.18,0,0,1-4.61-5.46,5.1,5.1,0,0,1,5.28-5h30.34a5.15,5.15,0,0,1,5.37,4.85A5.2,5.2,0,0,1,132.25,332.82Z"/><path class="cls-2" d="M148.75,57.87a9.76,9.76,0,0,1-2.37-1.29c-3.69-3.59-7.32-7.25-10.95-10.91a3.18,3.18,0,0,1,0-4.7q5.52-5.59,11.1-11.11a3.16,3.16,0,0,1,4.62-.06q5.67,5.52,11.26,11.1a3.1,3.1,0,0,1,.08,4.43Q156.78,51.11,151,56.76A8.73,8.73,0,0,1,148.75,57.87Zm-6.19-14.66,6.3,6.29c2-2,4.21-4.22,6.22-6.22l-6.2-6.38Z"/><path class="cls-4" d="M148.69,155.77c2.93-2.94,5.74-5.77,8.57-8.58a3.78,3.78,0,0,1,6.33,3.7,5.43,5.43,0,0,1-1.26,2q-5.25,5.34-10.58,10.6a4,4,0,0,1-6.12,0q-5.26-5.24-10.5-10.51c-1.8-1.81-1.86-4.13-.21-5.73s3.87-1.39,5.63.37Z"/><path class="cls-3" d="M212.27,199.83l6.15,6.14c.88.87,1.77,1.73,2.62,2.63a3.81,3.81,0,0,1,0,5.3,3.75,3.75,0,0,1-5.3.16q-5.79-5.66-11.45-11.45a3.81,3.81,0,0,1,.22-5.49q5.37-5.4,10.77-10.78a3.82,3.82,0,0,1,5.55-.23,3.86,3.86,0,0,1-.11,5.58c-2.34,2.41-4.74,4.76-7.12,7.13A13.5,13.5,0,0,1,212.27,199.83Z"/><path class="cls-3" d="M84.82,201.69l-8.34-8.34a3.78,3.78,0,0,1-1.19-3.8,3.73,3.73,0,0,1,6.14-2c4,3.79,7.8,7.7,11.63,11.61a3.72,3.72,0,0,1,0,5.14q-5.62,5.74-11.37,11.37a3.8,3.8,0,0,1-5.25-5.5c2.48-2.55,5-5,7.54-7.56Z"/><path class="cls-3" d="M97.29,104.3,105.54,96a3.83,3.83,0,1,1,5.43,5.36q-5.35,5.41-10.76,10.76c-1.89,1.88-4.1,1.83-6-.07L83.61,101.47A3.82,3.82,0,1,1,88.92,96c2.5,2.42,4.93,4.91,7.39,7.36C96.61,103.67,96.93,104,97.29,104.3Z"/><path class="cls-3" d="M200.75,104.33c2.77-2.77,5.39-5.46,8.1-8.07a6.31,6.31,0,0,1,2.49-1.52,3.63,3.63,0,0,1,4.07,1.83,3.67,3.67,0,0,1-.65,4.52q-5.61,5.67-11.28,11.29a3.72,3.72,0,0,1-5.31.08q-5.71-5.56-11.28-11.28a3.77,3.77,0,0,1,.17-5.39,3.82,3.82,0,0,1,5.39.2C195.19,98.73,197.92,101.48,200.75,104.33Z"/><path class="cls-4" d="M148.55,243.83c-2.91,2.91-5.69,5.71-8.49,8.5a3.73,3.73,0,0,1-4.08,1,3.66,3.66,0,0,1-2.49-3.1,3.58,3.58,0,0,1,1.09-3.17q5.58-5.62,11.19-11.19a3.94,3.94,0,0,1,5.61,0q5.49,5.44,10.94,10.94a3.82,3.82,0,1,1-5.46,5.33C154.11,249.42,151.38,246.67,148.55,243.83Z"/></svg>
